<svg width="24" height="24" viewBox="0 0 480 480" xmlns="http://www.w3.org/2000/svg"><path d="M439.473333.32H40.1133333c-22 0-40 18-40 40v399.36c0 22 18 40 40 40H439.473333c22 0 40-18 40-40V40.32c0-22-18-40-40-40zM448.56 285.193333c-1.973333 1.943334-3.853333 3.983334-6.526667 6.753334 3.85 23.133333-11.3 36.856666-27.916666 49.686666-17.306667 13.363334-34.62 26.723334-52.14 39.806667-3.91 2.92-8.686667 4.676667-13.103334 6.986667-10.913333 30.136666-15.03 33.84-38.153333 33.313333-5.533333 14.873333-16.52 20.796667-32.503333 16.596667-1.06-.276667-2.706667-1.213334-3.06-.853334-15.543334 15.986667-33.38 3.666667-49.573334 2.613334-11.966666-.776667-24.093333-8.46-34.876666-15.126667-9.11-5.633333-15.556667-15.99-28.506667-12.993333-.493333.113333-1.2-.013334-1.606667-.306667-12.483333-9.036667-27.573333-3.486667-40.236666-6.89-16.426667-4.41-31.03-15.89-46.066667-24.906667-2.263333-1.356666-2.71-5.843333-3.853333-8.933333-.766667-2.07-.773334-5.72-1.986667-6.133333-16.42-5.603334-15.8-21.216667-21.2333333-33.71-5.0566667-11.623334-8.5666667-22.013334-2.16-34.083334 1.5133333-2.85 1.4466666-7.623333.1633333-10.696666-8.2833333-19.79-8.46-19.723334-6.4266667-39.403334-16.9866666-14.476666-19.4833333-25.47-5.68-42.91-5.5333333-12.523333-8.3166666-25.18 6.79-34.233333 1.13-.676667 1.5066667-2.88 1.9066667-4.453333C46.7366667 145.98 61.35 133.82 76.68 124.31c14.056667-8.716667 31.17-10.896667 40.433333-28.483333C120.576667 89.25 131.316667 85.4 133.476667 75.393333 133.986667 73.03 136.613333 70.7 138.84 69.21c11.07-7.41 24-11.22 34.116667-21.22 4.25-4.1966667 16.106666-.6966667 27.36-.6966667C215.266667 28.62 235.8 43.8 254.76 46.2233333c8.97 1.1433334 16.99 9.13 25.643333 13.6233334 3.803334 1.9766663 8.046667 3.2600003 12.23 4.2933333 2.633334.65 5.88-.563333 8.243334.463333 13.293333 5.77 26.536666 9.53 41.01 3.946667 1.983333-.763333 6.43.743333 7.566666 2.556667 9.3 14.863333 28.133334 10.063333 39.52 19.72 3.273334 2.776666 3.796667 8.793333 6.023334 14.44 10.883333 3.556666 22.763333 7.846666 19.89 24.15C426.55 136.613333 418.916667 151.79 427.62 160.21c-9.186667 20.076667 12.23 36.81 6.213333 57.88 2.85 1.973333 7.15 3.78 9.676667 6.983333 3.626667 4.603334 9.74 12.593334 8.216667 15.023334C442.413333 254.983333 462.6 271.363333 448.56 285.193333zm-213.446667-181.94C212.986667 111.446667 212.72 111.84 217.663333 131.68c-10.756666 4.783333-17.26 12.573333-11.58 25.64.72 1.66.29 4.766667-.87 6.13-5.09 5.966667-4.12 11.493333-1.49 18.403333 1.45 3.81-1.4 9.256667-2.3 13.9 4.726667 6.503334 9.85 12.71 13.89 19.556667 1.516667 2.566667 1.896667 8.363333.343334 9.596667-2.396667 1.9-7.506667 2.526666-10.41 1.263333-11.586667-5.033333-23.756667-9.66-33.773334-17.06-7.836666-5.79-13.323333-15.113333-18.903333-23.496667-4.073333-6.12-6.603333-13.266666-11.326667-23.086666 1.05-2.086667 3.796667-7.246667 6.256667-12.54 1.733333-3.726667 5.26-8.443334 4.193333-11.306667-3.14-8.416667 2.87-14.896667 3.003334-21.753333.34-17.756667 19.963333-21.353334 23.536666-35.93C197.216667 72.633333 214.77 58.87 237.73 65.68c3.56 1.056667 7.453333.986667 10.706667 1.38 4.133333 8.37-.316667 12.996667-4.51 18.5-3.833334 5.033333-5.82 11.476667-8.813334 17.693333zM372.606667 118.73c8.386666 7.426667 14.843333 13.146667 22.15 19.616667 1.786666 7.903333 3.833333 16.943333 5.876666 25.98-1.126666.883333-2.25 1.763333-3.376666 2.646666-14.74-9.61-33.456667 1.053334-47.71-11.436666-1.083334-.95-3.243334-1.243334-4.776667-1.01-14.276667 2.176666-29.26 2.483333-42.62 7.28-25.196667 9.04-48.25 22.383333-64.32 48.276666-11.023333-11.683333-10.906667-23.68-8.386667-35.553333 2.433334-11.466667 6.513334-22.583333 10.16-34.826667 13.933334.156667 13.313334-12.916666 17.116667-20.646666 31-11.913334 60.816667-24.906667 95.89-12.553334 3.32 7.706667 9.756667 15.68 19.996667 12.226667zm-134.1 135.75c12.37 26.77 3.42 50.246667-7.74 72.366667-4.77 6.283333-9.566667 12.543333-14.29 18.86-1.316667 1.76-2.42 5.29-3.616667 5.286666-16.68-.036666-26.64 16.553334-44.2 16.376667-14.083333-.14-27.496667 2.53-41.91-2.376667-16.853333-5.74-30.31-14.46-42.883333-26.88-10.283334-10.156666-12.986667-20.07-9.276667-33.28h33.776667c8.086666 9.873334 19.54 15.263334 34.323333 6.463334 2.433333-1.45 6.313333-.32 9.483333-.716667 6.41-.803333 12.876667-1.453333 19.153334-2.883333 6.203333-1.41 12.203333-3.716667 18.296666-5.61C191.72 301.436667 194.44 301.47 195.84 300.12c8.836667-8.513333 17.536667-17.183333 25.97-26.096667 5.3-5.606666 10.056667-11.726666 16.696667-19.543333zM101.88 136.04c-1.573333 13.856667.136667 24.713333 13.16 31.456667-5.113333 14.38-6.076667 27.023333 11.626667 32.156666.983333.283334 2.513333 1.12 2.57 1.8 1.313333 15.793334 15.16 17.45 25.286666 24.426667 16.196667 11.163333 32.356667 18.29 52.22 15.93 3.25-.386667 6.743334 1.253333 10.44 2.02-2.006666 15.936667-14.106666 23.423333-23.95 26.936667-18.673333 6.663333-37.636666 18.883333-59.516666 8.21-4.186667-2.04-10.666667.616666-14.353334.95-22.833333-10.61-33.803333-32.593334-52.95-46.733334.913334-9.906666 8.27-21.52-4.283333-28.206666 3.083333-30.223334 13.903333-53.88 39.75-68.946667zm278.08 203.2c-2.136667-5.713333-5.48-10.083333-4.79-13.676667 2.11-10.993333-2.213333-18.27-11.696667-24.293333 4.363334-13.42-.233333-23.26-12.25-30.403333-2.71-1.61-5.006666-5.83-5.386666-9.093334-1.086667-9.296666-5.966667-13.78-14.916667-14.896666-2.653333-.33-6.32-.776667-7.606667-2.556667-12.913333-17.846667-32.936666-17.526667-51.58-20.766667-4.493333-.78-9.013333-1.396666-13.983333-2.156666 1.373333-16.03 14.243333-20.67 22.613333-23.75 19.143334-7.043334 40.01-16.643334 60.503334-7.91 16.32 6.956666 36.396666 8.133333 47.17 26.42 3.306666 5.616666 10.926666 8.69 16.55 12.91 3.153333 9.7 6.46 19.866666 10.276666 31.606666v32.85C406.103333 306.77 399.426667 325.106667 379.96 339.24zm-189.87 56.03c31.243333.42 34.583333-1.616667 41.603333-24.613333 13.31-4.43 24.743334-11.373334 24.91-28.416667.02-2.08 3.23-4.123333 4.96-6.19 2.096667-2.506667 5.713334-4.83 6.043334-7.553333 2.453333-20.303334 6.833333-40.726667-.28-60.98-2.82-8.03-5.973334-15.943334-10.183334-27.12 8.18.823333 13.616667.316666 18.243334 2.016666 19.673333 7.22 35.426666 20.426667 47.74 36.783334 5.793333 7.696666 7.326666 18.596666 11.723333 30.6-4.84 7.123333-7.096667 17.446666 1.87 27.92-11.806667 9.566666-17.94 20.82-16.036667 33.866666-9.353333 8.976667-17.836666 17.123334-28.77 27.62-6.093333 2.713334-15.85 7.053334-25.033333 11.136667-7.913333 1.49-15.646667 3.656667-23.493333 4.216667-7.553334.536666-16.71 1.903333-22.51-1.55-9.633334-5.74-25.096667-1.41-30.786667-17.736667z" fill="#000" fill-rule="evenodd"/></svg>