<svg width="24" height="24" fill="none" xmlns="http://www.w3.org/2000/svg"><path fill-rule="evenodd" clip-rule="evenodd" d="M11.9998 1.89478C6.41678 1.89478 1.89453 6.42322 1.89453 12c0 4.4665 2.89697 8.2505 6.91054 9.5904.50247.0931.68857-.2171.68857-.49 0-.242-.0062-.8747-.01241-1.7184-2.81012.608-3.40564-1.3523-3.40564-1.3523-.45905-1.1662-1.12281-1.4764-1.12281-1.4764-.91809-.6265.06824-.6141.06824-.6141 1.01115.0744 1.55084 1.0421 1.55084 1.0421.89949 1.5447 2.36348 1.098 2.94039.8375.09305-.6514.35359-1.098.63895-1.3523-2.24562-.2544-4.60289-1.1229-4.60289-4.9937 0-1.1042.39081-2.00373 1.04216-2.71091-.10546-.25434-.45285-1.2841.09925-2.67365 0 0 .84986-.27294 2.7791 1.03596.80648-.22332 1.66868-.33498 2.53098-.34118.8561.0062 1.7245.11786 2.531.34118 1.9292-1.3089 2.7791-1.03596 2.7791-1.03596.5521 1.38955.2047 2.41931.0992 2.67365.6452.70718 1.036 1.60671 1.036 2.71091 0 3.8833-2.3635 4.7331-4.6153 4.9874.3598.3102.6886.9306.6886 1.8735 0 1.3523-.0125 2.4379-.0125 2.7729 0 .2729.1799.5831.6948.4838 4.0136-1.3399 6.9044-5.1239 6.9044-9.5842 0-5.58298-4.5223-10.11142-10.1053-10.11142z" fill="#191717"/></svg>